<svg xmlns="http://www.w3.org/2000/svg" viewBox="0 0 900 580" width="100%" height="100%">
  <defs>
    <filter id="neonCyan" x="-20%" y="-20%" width="140%" height="140%">
      <feGaussianBlur in="SourceGraphic" stdDeviation="3" result="blur"/>
      <feColorMatrix in="blur" type="matrix" values="0 0 0 0 0  0 1 1 0 0  0 1 1 0 0  0 0 0 1 0" result="glow"/>
      <feMerge><feMergeNode in="glow"/><feMergeNode in="SourceGraphic"/></feMerge>
    </filter>
    <filter id="neonGreen" x="-20%" y="-20%" width="140%" height="140%">
      <feGaussianBlur in="SourceGraphic" stdDeviation="3" result="blur"/>
      <feColorMatrix in="blur" type="matrix" values="0 0 0 0 0  0 1 0 0 0  0 0 0 0 0  0 0 0 1 0" result="glow"/>
      <feMerge><feMergeNode in="glow"/><feMergeNode in="SourceGraphic"/></feMerge>
    </filter>
    <filter id="neonPurple" x="-20%" y="-20%" width="140%" height="140%">
      <feGaussianBlur in="SourceGraphic" stdDeviation="3" result="blur"/>
      <feColorMatrix in="blur" type="matrix" values="0 0 0 0 0.7  0 0 0 0 0  0 0 0 0 1  0 0 0 1 0" result="glow"/>
      <feMerge><feMergeNode in="glow"/><feMergeNode in="SourceGraphic"/></feMerge>
    </filter>
    <filter id="neonOrange" x="-20%" y="-20%" width="140%" height="140%">
      <feGaussianBlur in="SourceGraphic" stdDeviation="3" result="blur"/>
      <feColorMatrix in="blur" type="matrix" values="0 0 0 0 1  0 0 0 0 0.5  0 0 0 0 0  0 0 0 1 0" result="glow"/>
      <feMerge><feMergeNode in="glow"/><feMergeNode in="SourceGraphic"/></feMerge>
    </filter>
  </defs>

  <!-- Background -->
  <rect width="900" height="580" rx="12" fill="#0d1117"/>
  <rect width="900" height="580" rx="12" fill="none" stroke="#21262d" stroke-width="1"/>

  <!-- Kernel Space outer box -->
  <rect x="40" y="30" width="820" height="300" rx="10" fill="#1a1025" stroke="#bf00ff" stroke-width="2" filter="url(#neonPurple)"/>
  <text x="450" y="60" text-anchor="middle" fill="#bf00ff" font-family="monospace" font-size="16" font-weight="bold">KERNEL SPACE</text>

  <!-- kprobes box -->
  <rect x="100" y="85" width="180" height="80" rx="6" fill="#161b22" stroke="#00fff2" stroke-width="1.5" filter="url(#neonCyan)"/>
  <text x="190" y="112" text-anchor="middle" fill="#00fff2" font-family="monospace" font-size="14" font-weight="bold">kprobes</text>
  <text x="190" y="135" text-anchor="middle" fill="#8b949e" font-family="monospace" font-size="11">(syscalls)</text>
  <text x="190" y="155" text-anchor="middle" fill="#e6edf3" font-family="monospace" font-size="10">vfs_read, getdents, execve</text>

  <!-- uprobes box -->
  <rect x="360" y="85" width="180" height="80" rx="6" fill="#161b22" stroke="#39ff14" stroke-width="1.5" filter="url(#neonGreen)"/>
  <text x="450" y="112" text-anchor="middle" fill="#39ff14" font-family="monospace" font-size="14" font-weight="bold">uprobes</text>
  <text x="450" y="135" text-anchor="middle" fill="#8b949e" font-family="monospace" font-size="11">(SSL r/w)</text>
  <text x="450" y="155" text-anchor="middle" fill="#e6edf3" font-family="monospace" font-size="10">SSL_read, SSL_write</text>

  <!-- XDP box -->
  <rect x="620" y="85" width="180" height="80" rx="6" fill="#161b22" stroke="#ff6600" stroke-width="1.5" filter="url(#neonOrange)"/>
  <text x="710" y="112" text-anchor="middle" fill="#ff6600" font-family="monospace" font-size="14" font-weight="bold">XDP</text>
  <text x="710" y="135" text-anchor="middle" fill="#8b949e" font-family="monospace" font-size="11">(packets)</text>
  <text x="710" y="155" text-anchor="middle" fill="#e6edf3" font-family="monospace" font-size="10">filter, C2, reverse shell</text>

  <!-- Arrows from probes to BPF Maps -->
  <line x1="190" y1="165" x2="190" y2="210" stroke="#00fff2" stroke-width="1.5"/>
  <polygon points="185,205 190,215 195,205" fill="#00fff2"/>
  <line x1="450" y1="165" x2="450" y2="210" stroke="#39ff14" stroke-width="1.5"/>
  <polygon points="445,205 450,215 455,205" fill="#39ff14"/>
  <line x1="710" y1="165" x2="710" y2="210" stroke="#ff6600" stroke-width="1.5"/>
  <polygon points="705,205 710,215 715,205" fill="#ff6600"/>

  <!-- BPF Maps box -->
  <rect x="100" y="220" width="700" height="90" rx="6" fill="#161b22" stroke="#00fff2" stroke-width="2" filter="url(#neonCyan)"/>
  <text x="450" y="250" text-anchor="middle" fill="#00fff2" font-family="monospace" font-size="14" font-weight="bold">BPF Maps (shared state)</text>
  <text x="280" y="280" text-anchor="middle" fill="#e6edf3" font-family="monospace" font-size="12">http_routes</text>
  <text x="430" y="280" text-anchor="middle" fill="#e6edf3" font-family="monospace" font-size="12">dns_table</text>
  <text x="580" y="280" text-anchor="middle" fill="#e6edf3" font-family="monospace" font-size="12">piped_progs</text>
  <text x="720" y="280" text-anchor="middle" fill="#e6edf3" font-family="monospace" font-size="12">comm_prog_key</text>

  <!-- Bidirectional arrows between Kernel and User space -->
  <line x1="300" y1="340" x2="300" y2="410" stroke="#bf00ff" stroke-width="2" stroke-dasharray="6,3"/>
  <polygon points="295,405 300,415 305,405" fill="#bf00ff"/>
  <text x="320" y="385" fill="#8b949e" font-family="monospace" font-size="11">(data)</text>

  <line x1="600" y1="410" x2="600" y2="340" stroke="#39ff14" stroke-width="2" stroke-dasharray="6,3"/>
  <polygon points="595,345 600,335 605,345" fill="#39ff14"/>
  <text x="620" y="385" fill="#8b949e" font-family="monospace" font-size="11">(commands)</text>

  <!-- User Space box -->
  <rect x="40" y="420" width="820" height="130" rx="10" fill="#0f1a12" stroke="#39ff14" stroke-width="2" filter="url(#neonGreen)"/>
  <text x="450" y="455" text-anchor="middle" fill="#39ff14" font-family="monospace" font-size="16" font-weight="bold">USER SPACE</text>

  <!-- Daemon and Client -->
  <rect x="150" y="475" width="240" height="50" rx="6" fill="#161b22" stroke="#00fff2" stroke-width="1.5"/>
  <text x="270" y="505" text-anchor="middle" fill="#e6edf3" font-family="monospace" font-size="13">kubedagger (daemon)</text>

  <line x1="390" y1="500" x2="500" y2="500" stroke="#8b949e" stroke-width="1.5"/>
  <polygon points="495,495 505,500 495,505" fill="#8b949e"/>
  <polygon points="395,495 385,500 395,505" fill="#8b949e"/>
  <text x="445" y="490" text-anchor="middle" fill="#8b949e" font-family="monospace" font-size="10">HTTP</text>

  <rect x="510" y="475" width="240" height="50" rx="6" fill="#161b22" stroke="#00fff2" stroke-width="1.5"/>
  <text x="630" y="505" text-anchor="middle" fill="#e6edf3" font-family="monospace" font-size="13">kubedagger-client</text>
</svg>
